<?xml version="1.0" encoding="UTF-8" standalone="no"?>
<!-- Created with Inkscape (http://www.inkscape.org/) -->

<svg
   width="3.0932086mm"
   height="3.0928249mm"
   viewBox="0 0 3.0932086 3.0928249"
   version="1.1"
   id="svg1"
   xmlns="http://www.w3.org/2000/svg"
   xmlns:svg="http://www.w3.org/2000/svg">
  <defs
     id="defs1">
    <clipPath
       clipPathUnits="userSpaceOnUse"
       id="clipPath981">
      <path
         d="M 0,0 H 2692.913 V 1275.591 H 0 Z"
         transform="translate(-1018.2789,-1129.7294)"
         id="path981" />
    </clipPath>
  </defs>
  <g
     id="layer1"
     transform="translate(-103.71666,-146.84375)">
    <g
       id="g978"
       transform="matrix(0.26458333,0,0,0.26458333,-253.60122,97.100155)">
      <path
         id="path979"
         d="M 0,0 -4.029,-4.03 -8.061,0 -4.029,4.03 Z"
         style="fill:none;stroke:#fff;stroke-width:0.5;stroke-linecap:butt;stroke-linejoin:miter;stroke-miterlimit:4;stroke-dasharray:none;stroke-opacity:1"
         transform="matrix(1.3333333,0,0,-1.3333333,1361.7123,193.852)" />
    </g>
    <g
       id="g979"
       transform="matrix(0.26458333,0,0,0.26458333,-253.60122,97.100155)">
      <path
         id="path980"
         d="M 0,0 0.77,-0.209 C 0.652,-0.578 0.456,-0.851 0.181,-1.03 c -0.274,-0.178 -0.623,-0.268 -1.045,-0.268 -0.522,0 -0.951,0.153 -1.288,0.459 -0.336,0.306 -0.504,0.725 -0.504,1.256 0,0.561 0.169,0.997 0.507,1.308 0.338,0.311 0.782,0.466 1.334,0.466 0.481,0 0.871,-0.122 1.172,-0.366 C 0.536,1.681 0.67,1.474 0.759,1.204 L -0.027,1.042 c -0.046,0.175 -0.143,0.313 -0.291,0.415 -0.147,0.101 -0.327,0.152 -0.538,0.152 -0.291,0 -0.528,-0.09 -0.709,-0.27 -0.182,-0.179 -0.273,-0.47 -0.273,-0.872 0,-0.426 0.089,-0.73 0.268,-0.911 0.179,-0.181 0.412,-0.271 0.698,-0.271 0.211,0 0.393,0.057 0.545,0.172 C -0.175,-0.428 -0.066,-0.247 0,0"
         style="fill:#fff;fill-opacity:1;fill-rule:nonzero;stroke:none"
         transform="matrix(1.3333333,0,0,-1.3333333,1357.7051,194.4808)"
         clip-path="url(#clipPath981)" />
    </g>
  </g>
</svg>
